<?xml version="1.0" standalone="no"?>
<!DOCTYPE svg PUBLIC "-//W3C//DTD SVG 20010904//EN"
 "http://www.w3.org/TR/2001/REC-SVG-20010904/DTD/svg10.dtd">
<svg version="1.0" xmlns="http://www.w3.org/2000/svg"
 width="1024.000000pt" height="1024.000000pt" viewBox="0 0 1024.000000 1024.000000"
 preserveAspectRatio="xMidYMid meet">
   <style>
    @media (prefers-color-scheme: dark) {
      path { fill: white; }
    }
    @media (prefers-color-scheme: light) {
      path { fill: black; }
    }
  </style>

<g transform="translate(0.000000,1024.000000) scale(0.100000,-0.100000)"
fill="#000000" stroke="none">
<path d="M1761 8420 c-188 -64 -318 -205 -356 -387 -13 -58 -15 -414 -15
-2480 0 -1326 3 -2419 6 -2428 19 -48 -195 -45 3724 -45 3920 0 3705 -3 3724
46 3 9 6 1110 5 2447 0 2106 -2 2439 -15 2487 -33 125 -161 279 -276 333 -129
61 105 57 -3456 57 l-3257 -1 -84 -29z m6606 -405 c18 -8 42 -29 53 -47 20
-33 20 -47 20 -2235 l0 -2201 -26 -21 -27 -21 -3267 0 c-3203 0 -3268 0 -3291
19 l-24 19 0 2210 0 2211 21 28 c11 15 36 33 55 40 26 9 781 12 3244 12 2731
0 3215 -2 3242 -14z"/>
<path d="M5065 7506 c-88 -38 -165 -215 -152 -350 9 -88 39 -167 100 -260 73
-109 78 -119 87 -187 10 -69 -4 -130 -45 -202 -21 -37 -26 -56 -22 -84 9 -51
42 -83 87 -83 107 0 205 161 204 335 0 103 -22 166 -90 267 -76 111 -95 153
-101 218 -6 62 7 114 42 170 32 51 37 85 21 124 -25 60 -71 78 -131 52z"/>
<path d="M5562 7503 c-41 -20 -73 -61 -109 -138 -21 -48 -28 -79 -31 -152 -6
-123 19 -204 95 -316 78 -114 93 -150 93 -228 0 -55 -6 -77 -35 -136 -37 -75
-43 -110 -23 -146 17 -33 39 -46 76 -47 67 0 118 47 170 158 24 51 27 68 27
172 0 132 -11 165 -104 302 -68 102 -82 138 -83 214 -1 54 4 73 35 133 41 77
45 107 22 152 -25 48 -76 61 -133 32z"/>
<path d="M4570 7503 c-58 -21 -130 -137 -150 -241 -26 -130 2 -246 87 -370 76
-110 87 -139 87 -222 1 -65 -4 -83 -32 -137 -40 -78 -43 -133 -7 -168 43 -44
114 -31 168 30 10 11 34 53 54 94 30 60 37 88 41 153 7 113 -16 188 -90 300
-81 121 -98 161 -98 233 0 51 6 73 41 143 40 78 41 85 30 122 -6 22 -21 46
-34 55 -21 15 -67 19 -97 8z"/>
<path d="M3738 6121 c-13 -11 -37 -38 -52 -60 l-29 -41 7 -117 c32 -547 61
-767 147 -1123 57 -233 116 -379 216 -534 92 -142 196 -238 326 -300 133 -64
184 -68 751 -64 541 5 550 6 671 62 142 66 292 219 386 392 13 25 30 33 128
62 401 116 735 396 868 728 124 308 22 604 -254 737 l-88 42 -163 4 -163 3 2
59 c2 46 -2 64 -17 82 -11 12 -26 34 -33 49 -8 14 -23 29 -35 32 -11 3 -611 6
-1332 6 -1279 0 -1312 0 -1336 -19z m2428 -281 l27 -11 -7 -127 c-18 -322
-114 -806 -213 -1072 -103 -278 -225 -420 -395 -460 -25 -5 -243 -10 -524 -10
-544 0 -547 0 -637 74 -141 115 -234 295 -327 631 -54 196 -85 353 -109 545
-19 156 -23 194 -36 368 l-5 72 1099 0 c730 0 1109 -3 1127 -10z m645 -252
c184 -108 145 -390 -84 -605 -99 -94 -255 -177 -373 -199 -32 -6 -36 -5 -31
10 24 63 111 515 127 661 6 55 14 115 16 133 l5 34 147 -4 c138 -3 150 -5 193
-30z"/>
<path d="M933 2840 c-12 -5 -29 -20 -39 -34 -14 -23 -16 -52 -12 -243 4 -186
8 -226 25 -273 40 -108 103 -193 195 -262 61 -46 97 -62 193 -88 68 -19 162
-19 3826 -20 3712 0 3756 0 3833 20 97 25 160 58 236 127 72 65 120 143 151
243 21 68 24 94 24 277 l0 202 -28 28 -27 28 -1585 3 -1584 2 -17 -35 c-24
-51 -88 -110 -152 -142 l-57 -28 -790 0 -790 0 -55 26 c-71 33 -112 68 -151
130 l-32 49 -1571 -1 c-883 0 -1581 -4 -1593 -9z"/>
</g>
</svg>
